<svg width="18" height="15" viewBox="0 0 18 15" fill="none" xmlns="http://www.w3.org/2000/svg">
<path d="M16.2 0H1.8C1.32417 0.0024783 0.868643 0.201116 0.533022 0.552479C0.1974 0.903841 0.00899399 1.37934 0.00899993 1.875L0 13.125C0.00129559 13.6219 0.191354 14.098 0.528639 14.4493C0.865924 14.8007 1.32301 14.9987 1.8 15H16.2C16.677 14.9987 17.1341 14.8007 17.4714 14.4493C17.8086 14.098 17.9987 13.6219 18 13.125V1.875C17.9987 1.37813 17.8086 0.902004 17.4714 0.550666C17.1341 0.199327 16.677 0.00134958 16.2 0ZM16.2 3.75L9 8.4375L1.8 3.75V1.875L9 6.5625L16.2 1.875V3.75Z" fill="#222D68"/>
</svg>
