<svg width="12" height="10" viewBox="0 0 12 10" fill="none" xmlns="http://www.w3.org/2000/svg">
<path d="M6.31794 0.0351562C5.37545 0.0395612 4.45018 0.292452 3.6324 0.769154C2.81462 1.24586 2.13226 1.93009 1.65191 2.75509C1.17155 3.5801 0.909602 4.5177 0.891618 5.47641C0.873634 6.43512 1.10023 7.38221 1.54929 8.22526V6.75892C1.55147 6.49066 1.64321 6.23113 1.80946 6.0229C1.79566 5.87661 1.78876 5.72956 1.78876 5.58175C1.79109 4.35809 2.26825 3.18487 3.11644 2.31729C3.96463 1.44972 5.11523 0.957984 6.31794 0.949058C6.95476 0.951525 7.58398 1.08997 8.16489 1.35544C8.7458 1.62091 9.26546 2.00748 9.69027 2.49016C10.1151 2.97284 10.4356 3.54087 10.631 4.1575C10.8264 4.77414 10.8924 5.42564 10.8247 6.06986C10.9698 6.26945 11.0487 6.51073 11.0502 6.75892V8.29983C11.5153 7.45725 11.7561 6.50569 11.7486 5.53937C11.7411 4.57304 11.4856 3.62546 11.0075 2.79045C10.5294 1.95545 9.8452 1.26198 9.02266 0.778707C8.20012 0.295436 7.26778 0.0391264 6.31794 0.0351562Z" fill="#222D68"/>
<path d="M1.88413 6.52298C1.86088 6.5997 1.849 6.6795 1.84888 6.75978V8.83093C1.84888 9.47018 2.59721 9.98846 3.5204 9.98846H4.22397V5.60254H3.5204C2.71443 5.60254 2.04191 5.9973 1.88413 6.52298Z" fill="#222D68"/>
<path d="M10.7506 8.83094V6.75979C10.7504 6.71041 10.7458 6.66115 10.7367 6.61264C10.632 6.04341 9.93012 5.60254 9.0791 5.60254H8.37524V9.98875H9.0791C10.0026 9.98847 10.7506 9.47019 10.7506 8.83094Z" fill="#222D68"/>
</svg>
