<svg width="12" height="9" viewBox="0 0 12 9" fill="none" xmlns="http://www.w3.org/2000/svg">
<path d="M11.7931 0H0.206927C0.152046 0 0.0994138 0.0206184 0.0606075 0.0573193C0.0218012 0.0940203 0 0.143797 0 0.1957L0 8.8043C0 8.8562 0.0218012 8.90598 0.0606075 8.94268C0.0994138 8.97938 0.152046 9 0.206927 9H11.7931C11.8478 9 11.9003 8.9795 11.9391 8.94298C11.9779 8.90645 11.9998 8.85689 12 8.80513V0.1957C12 0.143797 11.9782 0.0940203 11.9394 0.0573193C11.9006 0.0206184 11.848 0 11.7931 0ZM2.06898 8.6086H0.413854V6.8484H2.06898V8.6086ZM2.06898 6.45617H0.413854V4.69625H2.06898V6.45617ZM2.06898 4.30375H0.413854V2.54383H2.06898V4.30375ZM2.06898 2.15132H0.413854V0.391401H2.06898V2.15132ZM7.55941 4.66442L5.28351 6.03432C5.25216 6.05315 5.21602 6.06366 5.1789 6.06473C5.14177 6.0658 5.10503 6.0574 5.07252 6.04042C5.04001 6.02343 5.01293 5.99848 4.99413 5.96818C4.97533 5.93789 4.96549 5.90337 4.96566 5.86824V3.12788C4.96546 3.09271 4.97528 3.05814 4.9941 3.02781C5.01292 2.99747 5.04003 2.97249 5.07259 2.9555C5.10514 2.9385 5.14194 2.93012 5.17911 2.93123C5.21628 2.93234 5.25245 2.9429 5.2838 2.9618L7.55971 4.33143C7.58901 4.34915 7.61313 4.37356 7.62984 4.40242C7.64655 4.43127 7.6553 4.46364 7.6553 4.49654C7.6553 4.52944 7.64655 4.56181 7.62984 4.59066C7.61313 4.61952 7.58901 4.64393 7.55971 4.66165L7.55941 4.66442ZM11.5861 8.6086H9.93102V6.8484H11.5861V8.6086ZM11.5861 6.45617H9.93102V4.69625H11.5861V6.45617ZM11.5861 4.30375H9.93102V2.54383H11.5861V4.30375ZM11.5861 2.15132H9.93102V0.391401H11.5861V2.15132Z" fill="#222D68"/>
</svg>
