<svg width="30" height="20" viewBox="0 0 30 20" fill="none" xmlns="http://www.w3.org/2000/svg">
<path d="M12.3423 9.09972C12.9648 8.78657 13.4355 8.43779 13.758 8.06088C14.3318 7.38208 14.615 6.482 14.615 5.36629C14.615 4.28057 14.3318 3.35237 13.7655 2.57418C12.8204 1.30658 11.2209 0.657776 8.95949 0.624023H0V18.9124H8.35381C9.29514 18.9124 10.1671 18.8318 10.9734 18.6668C11.7797 18.4999 12.4773 18.1942 13.0679 17.7479C13.593 17.3598 14.0318 16.8779 14.3806 16.3097C14.9319 15.4509 15.2075 14.4777 15.2075 13.3938C15.2075 12.3437 14.9656 11.4493 14.4856 10.7142C13.9999 9.97916 13.2873 9.441 12.3423 9.09972ZM3.69593 3.80053H7.73126C8.61821 3.80053 9.34952 3.89617 9.92331 4.08556C10.5871 4.3612 10.919 4.92188 10.919 5.77695C10.919 6.54388 10.6659 7.08018 10.1652 7.38208C9.66079 7.68398 9.00636 7.83586 8.2038 7.83586H3.69593V3.80053ZM10.0771 15.4171C9.63079 15.6328 9.00261 15.7396 8.19817 15.7396H3.69593V10.8624H8.26005C9.05512 10.868 9.67392 10.973 10.1165 11.1699C10.904 11.5262 11.2959 12.1787 11.2959 13.1332C11.2959 14.2583 10.8909 15.0158 10.0771 15.4171Z" fill="#222D68"/>
<path d="M27.1169 1.47656H19.1719V3.753H27.1169V1.47656Z" fill="#222D68"/>
<path d="M29.8771 10.4617C29.7121 9.40225 29.3483 8.47029 28.782 7.66585C28.1613 6.75453 27.3738 6.08697 26.4156 5.66506C25.4611 5.24128 24.3867 5.02939 23.1903 5.03126C21.182 5.03126 19.5506 5.65944 18.2887 6.90642C17.0304 8.15714 16.4004 9.95541 16.4004 12.2994C16.4004 14.7989 17.0961 16.6047 18.4949 17.7129C19.8882 18.823 21.4971 19.3762 23.3235 19.3762C25.5343 19.3762 27.2538 18.718 28.482 17.4054C29.2677 16.5766 29.7121 15.7609 29.8096 14.9602H26.1493C25.9374 15.3559 25.6918 15.6653 25.4105 15.8903C24.9005 16.3028 24.2367 16.5091 23.4228 16.5091C22.6484 16.5091 21.9921 16.3384 21.4446 15.999C20.5407 15.4552 20.0682 14.5027 20.0082 13.1469H29.9971C30.0121 11.9787 29.9746 11.0805 29.8771 10.4617ZM20.0982 10.8124C20.2295 9.93291 20.5482 9.23536 21.0545 8.71969C21.5608 8.2059 22.2771 7.94713 23.1941 7.94525C24.0398 7.94525 24.7467 8.18715 25.3224 8.67281C25.8905 9.16222 26.2112 9.87291 26.2768 10.8124H20.0982Z" fill="#222D68"/>
</svg>
