<svg width="27" height="28" viewBox="0 0 27 28" fill="none" xmlns="http://www.w3.org/2000/svg">
<path d="M13.5 0C6.05644 0 0 6.28075 0 14C0 21.7192 6.05644 28 13.5 28C20.9436 28 27 21.7192 27 14C27 6.28075 20.9436 0 13.5 0ZM13.5 26.25C6.98625 26.25 1.6875 20.7533 1.6875 14C1.6875 7.245 6.98625 1.75 13.5 1.75C20.0121 1.75 25.3125 7.245 25.3125 14C25.3125 20.7533 20.0121 26.25 13.5 26.25Z" fill="#222D68"/>
<path d="M13.4995 3.5C12.7908 3.5 12.0989 3.577 11.4307 3.7205C12.6592 5.5265 13.7746 7.406 14.7567 9.35375C16.6147 8.456 18.3629 7.2975 19.9593 5.915C18.206 4.4065 15.9549 3.5 13.4995 3.5Z" fill="#222D68"/>
<path d="M21.1633 7.15039C19.4269 8.66764 17.5167 9.92589 15.4883 10.9094C15.9321 11.8684 16.3438 12.8396 16.7252 13.8266C18.9662 13.3489 21.2983 13.3051 23.6102 13.7024C23.5427 11.1999 22.6348 8.91789 21.1633 7.15039Z" fill="#222D68"/>
<path d="M9.73712 4.25879C6.69793 5.52229 4.3928 8.26629 3.64355 11.635C6.92068 11.7803 10.1641 11.2133 13.183 10.018C12.1688 8.02129 11.0196 6.09629 9.73712 4.25879Z" fill="#222D68"/>
<path d="M13.9388 11.6006C11.016 12.7818 7.89413 13.4258 4.71994 13.4258C4.28287 13.4258 3.84412 13.3978 3.40537 13.3733C3.39356 13.5816 3.375 13.7881 3.375 13.9998C3.375 16.5776 4.27444 18.9366 5.76113 20.7636C8.19281 17.6328 11.4615 15.3893 15.0795 14.2623C14.7268 13.3628 14.3454 12.4773 13.9388 11.6006Z" fill="#222D68"/>
<path d="M17.3438 15.4833C18.1487 17.8108 18.7798 20.203 19.2422 22.6425C21.5237 21.0098 23.1167 18.432 23.5166 15.4535C21.4477 15.0738 19.3569 15.0913 17.3438 15.4833Z" fill="#222D68"/>
<path d="M15.6867 15.8896C12.2847 16.9204 9.21179 19.0379 6.95898 22.0076C8.72411 23.5599 11.0039 24.4997 13.4997 24.4997C14.9982 24.4997 16.4174 24.1531 17.6965 23.5459C17.2325 20.9314 16.5575 18.3729 15.6867 15.8896Z" fill="#222D68"/>
</svg>
