<svg width="31" height="31" viewBox="0 0 31 31" fill="none" xmlns="http://www.w3.org/2000/svg">
<g clip-path="url(#clip0)">
<path d="M29.9702 10.1423L17.6128 4.10566C16.5475 3.57302 14.7365 3.57302 13.6712 4.10566L1.02978 10.1423C0.142039 10.5684 0 11.1721 0 11.4917C0 11.8113 0.142039 12.3794 1.02978 12.8411L2.05956 13.3382V19.0197C1.42039 19.2683 0.958763 19.9075 0.958763 20.6177C0.958763 21.3279 1.42039 21.9671 2.02405 22.2156L0.426117 27.2935H4.90034L3.30241 22.2156C3.94158 21.9671 4.3677 21.3279 4.3677 20.6177C4.3677 19.872 3.90607 19.2683 3.2669 19.0197V13.9419L5.14891 14.8651V22.2511C5.14891 22.3577 5.18442 22.4642 5.25544 22.5707C5.43299 22.7838 8.73539 27.2935 15.4822 27.2935C22.2291 27.2935 25.5315 22.7483 25.6735 22.5707C25.7446 22.4642 25.7801 22.3577 25.7801 22.2511V14.9006L29.9702 12.8411C30.858 12.4149 31 11.8113 31 11.4917C30.9645 11.1721 30.858 10.5684 29.9702 10.1423ZM24.6438 22.0736C24.0756 22.7838 21.0218 26.1927 15.4822 26.1927C9.94273 26.1927 6.88889 22.7838 6.32073 22.0736V15.3622L13.6712 18.8777C14.2039 19.1263 14.9141 19.2683 15.6243 19.2683C16.37 19.2683 17.0802 19.1263 17.6128 18.8422L24.6438 15.3978V22.0736ZM29.4731 11.8468L25.2119 13.9419C25.0344 13.9419 24.8923 14.0129 24.8213 14.1549L17.1157 17.8834C16.37 18.274 14.9141 18.274 14.1329 17.8834L4.65178 13.3382L15.5533 12.0598C15.8729 12.0243 16.0859 11.7403 16.0504 11.4562C16.0149 11.1366 15.7308 10.9235 15.4467 10.959L2.80527 12.4504L1.52692 11.8468C1.20733 11.7047 1.13631 11.5272 1.13631 11.5272C1.13631 11.4917 1.20733 11.3496 1.52692 11.2076L14.1684 5.13544C14.559 4.95789 15.0916 4.85137 15.6243 4.85137C16.1924 4.85137 16.7606 4.95789 17.1157 5.13544L29.4731 11.1721C29.7927 11.3141 29.8637 11.4562 29.8637 11.5272C29.8637 11.5272 29.7572 11.7047 29.4731 11.8468Z" fill="#222D68"/>
</g>
<defs>
<clipPath id="clip0">
<rect width="31" height="31" fill="white"/>
</clipPath>
</defs>
</svg>
